<?xml version="1.0" encoding="UTF-8"?><svg width="212px" height="212px" viewBox="0 0 212 212" version="1.1" xmlns="http://www.w3.org/2000/svg" xmlns:xlink="http://www.w3.org/1999/xlink"><title>blue</title><desc>Created with Sketch.</desc><g id="blue" stroke="none" stroke-width="1" fill="none" fill-rule="evenodd"><g id="Group" transform="translate(4.000000, 40.000000)"><path d="M121.521739,98.4590164 C121.521739,71.5690868 99.8416148,49.7704918 73.0978261,49.7704918 C63.2995393,49.7704918 54.1809557,52.6965498 46.5592599,57.7270158" id="Oval" stroke="#1CB0F6" stroke-width="28.0425395" stroke-linecap="round" stroke-linejoin="round" transform="translate(84.040500, 74.114754) rotate(-67.000000) translate(-84.040500, -74.114754)"/><path d="M119.369565,85.4754098 C119.369565,58.5854802 97.6894409,36.7868852 70.9456522,36.7868852 C56.3235116,36.7868852 43.2150751,43.3032374 34.3361725,53.6052711" id="Oval" stroke="#1CB0F6" stroke-width="28.0425395" stroke-linecap="round" stroke-linejoin="round" transform="translate(76.852869, 61.131148) rotate(-30.000000) translate(-76.852869, -61.131148)"/><path d="M104.072107,18.333787 L179.378416,18.333787 C181.761103,18.333787 183.692653,20.2653366 183.692653,22.6480238 L183.692653,87.5933206 C183.692653,89.9760078 181.761103,91.9075575 179.378416,91.9075575 L104.072107,91.9075575 C101.68942,91.9075575 99.7578705,89.9760078 99.7578705,87.5933206 L99.7578705,22.6480238 C99.7578705,20.2653366 101.68942,18.333787 104.072107,18.333787 Z" id="Rectangle-70" fill="#D8D8D8" transform="translate(141.725262, 55.120672) rotate(-330.000000) translate(-141.725262, -55.120672)"/><path d="M106.204227,-4.08929636 C107.435509,-4.08929636 108.433661,-3.09114499 108.433661,-1.85986287 L108.433661,71.4587682 C108.433661,72.6900503 107.435509,73.6882016 106.204227,73.6882016 C104.972945,73.6882016 103.974794,72.6900503 103.974794,71.4587682 L103.974794,-1.85986287 C103.974794,-3.09114499 104.972945,-4.08929636 106.204227,-4.08929636 Z" id="Rectangle-70" fill="#ADADAD" transform="translate(106.204227, 34.799453) rotate(-330.000000) translate(-106.204227, -34.799453)"/><path d="M177.225966,37.0254577 C178.457248,37.0254577 179.4554,38.0236091 179.4554,39.2548912 L179.4554,112.573522 C179.4554,113.804804 178.457248,114.802956 177.225966,114.802956 C175.994684,114.802956 174.996533,113.804804 174.996533,112.573522 L174.996533,39.2548912 C174.996533,38.0236091 175.994684,37.0254577 177.225966,37.0254577 Z" id="Rectangle-70-Copy" fill="#ADADAD" transform="translate(177.225966, 75.914207) rotate(-330.000000) translate(-177.225966, -75.914207)"/><path d="M136.21623,18.061403 L155.574177,18.061403 C156.765521,18.061403 157.731295,19.0271778 157.731295,20.2185214 C157.731295,20.2388746 157.731007,20.2592267 157.730431,20.2795717 L155.658775,93.4490862 C155.62573,94.6161866 154.670088,95.5451544 153.50252,95.5451544 L134.144573,95.5451544 C132.953229,95.5451544 131.987455,94.5793795 131.987455,93.3880359 C131.987455,93.3676828 131.987743,93.3473307 131.988319,93.3269857 L134.059975,20.1574712 C134.09302,18.9903708 135.048662,18.061403 136.21623,18.061403 Z" id="Rectangle-70" fill="#1CB0F6" transform="translate(144.859375, 56.803279) rotate(-330.000000) translate(-144.859375, -56.803279)"/><ellipse id="Oval-2" fill="#F6F6F6" cx="120.445652" cy="44.3606557" rx="9.68478261" ry="9.73770492"/><line x1="120.580163" y1="44.4959016" x2="168.869565" y2="25.9672131" id="Line" stroke="#ADADAD" stroke-width="4.31423685" stroke-linecap="round" stroke-linejoin="round"/><path d="M83.6253942,129.738538 C87.7855391,129.738538 91.1580029,126.347646 91.1580029,122.164768 C91.1580029,117.98189 85.5542932,111.928398 83.2134555,111.928398 C80.8726179,111.928398 76.0927855,117.98189 76.0927855,122.164768 C76.0927855,126.347646 79.4652493,129.738538 83.6253942,129.738538 Z" id="Oval-40" fill="#1CB0F6" transform="translate(83.625394, 120.833468) rotate(-14.000000) translate(-83.625394, -120.833468)"/><path d="M12.6036551,54.0008336 C16.7638,54.0008336 20.1362638,50.609941 20.1362638,46.4270631 C20.1362638,42.2441851 14.532554,36.1906931 12.1917164,36.1906931 C9.85087874,36.1906931 5.07104639,42.2441851 5.07104639,46.4270631 C5.07104639,50.609941 8.44351018,54.0008336 12.6036551,54.0008336 Z" id="Oval-40-Copy" fill="#1CB0F6" transform="translate(12.603655, 45.095763) scale(-1, 1) rotate(-45.000000) translate(-12.603655, -45.095763)"/><path d="M68.7707376,36.8418107 C64.4887606,35.5547966 60.0094568,35.5781416 56.22106,36.5866886" id="Path-31" stroke="#FFFFFF" stroke-width="10.7855921" stroke-linecap="round" stroke-linejoin="round" transform="translate(62.495899, 36.346513) rotate(336.000000) translate(-62.495899, -36.346513)"/></g></g></svg>