<?xml version="1.0" encoding="UTF-8"?>
<svg width="212px" height="212px" viewBox="0 0 212 212" version="1.1" xmlns="http://www.w3.org/2000/svg" xmlns:xlink="http://www.w3.org/1999/xlink">
    <!-- Generator: Sketch 63.1 (92452) - https://sketch.com -->
    <title>shirt</title>
    <desc>Created with Sketch.</desc>
    <defs>
        <path d="M6.73721527,8.62387678 L58.3701657,0 L108.931329,8.60420096 C113.123651,9.31762573 115.943855,13.2945197 115.230431,17.4868423 C115.223751,17.5260961 115.216766,17.5652974 115.209478,17.6044428 L105.646409,68.9689839 L106.591771,146.897587 C106.618568,149.106563 104.849563,150.919016 102.640586,150.946108 C102.624413,150.946108 102.608239,150.946108 102.592065,150.946108 L13.0488188,150.946108 C10.8396798,150.946108 9.04881884,149.155247 9.04881884,146.946108 C9.04881884,146.929934 9.04891694,146.91376 9.04911313,146.897587 L9.99447514,68.9689839 L0.435799489,17.6280413 C-0.342574253,13.4472905 2.41559738,9.42712564 6.59634826,8.6487519 C6.64322589,8.64002421 6.69018359,8.63173214 6.73721527,8.62387678 Z" id="path-1"></path>
    </defs>
    <g id="shirt" stroke="none" stroke-width="1" fill="none" fill-rule="evenodd">
        <g id="Group" transform="translate(4.000000, 22.000000)">
            <path d="M157.030365,29.4477426 C158.164689,29.0123161 159.437224,29.5788851 159.872651,30.71321 L200.939472,137.695937 C201.374899,138.830262 200.80833,140.102797 199.674005,140.538223 L172.989078,150.781607 C171.854753,151.217033 170.582218,150.650464 170.146792,149.516139 L129.079971,42.5334126 C128.644544,41.3990877 129.211113,40.1265527 130.345438,39.6911262 L157.030365,29.4477426 Z" id="Rectangle-2-Copy" fill="#B5CACE"></path>
            <g id="Group-2" transform="translate(159.000000, 117.000000)">
                <path d="M35.234429,0.996359692 C36.3687539,0.560933155 37.6412889,1.12750223 38.0767154,2.26182714 L44.7402133,19.6208328 C45.1756399,20.7551577 44.6090708,22.0276927 43.4747459,22.4631192 L11.1883368,34.8567105 C10.0540119,35.292137 8.78147695,34.7255679 8.34605041,33.591243 L1.68255246,16.2322374 C1.24712593,15.0979125 1.813695,13.8253775 2.94801991,13.3899509 L35.234429,0.996359692 Z" id="Rectangle-2-Copy-3" fill="#D2E4E8"></path>
                <circle id="Oval" fill="#B5CACE" fill-rule="nonzero" cx="13" cy="19" r="4"></circle>
            </g>
            <path d="M48.0293221,29.4477426 L74.7142485,39.6911262 C75.8485735,40.1265527 76.4151425,41.3990877 75.979716,42.5334126 L34.9128949,149.516139 C34.4774684,150.650464 33.2049334,151.217033 32.0706085,150.781607 L5.38568198,140.538223 C4.25135707,140.102797 3.68478799,138.830262 4.12021453,137.695937 L45.1870356,30.71321 C45.6224622,29.5788851 46.8949971,29.0123161 48.0293221,29.4477426 Z" id="Rectangle-2-Copy-2" fill="#B5CACE"></path>
            <g id="Group-2-Copy" transform="translate(23.000000, 135.000000) scale(-1, 1) translate(-23.000000, -135.000000) translate(0.000000, 117.000000)">
                <path d="M35.234429,0.996359692 C36.3687539,0.560933155 37.6412889,1.12750223 38.0767154,2.26182714 L44.7402133,19.6208328 C45.1756399,20.7551577 44.6090708,22.0276927 43.4747459,22.4631192 L11.1883368,34.8567105 C10.0540119,35.292137 8.78147695,34.7255679 8.34605041,33.591243 L1.68255246,16.2322374 C1.24712593,15.0979125 1.813695,13.8253775 2.94801991,13.3899509 L35.234429,0.996359692 Z" id="Rectangle-2-Copy-3" fill="#D2E4E8"></path>
                <circle id="Oval" fill="#B5CACE" fill-rule="nonzero" cx="13" cy="19" r="4"></circle>
            </g>
            <g id="Rectangle-84-Copy-2" transform="translate(44.679558, 16.526946)">
                <mask id="mask-2" fill="white">
                    <use xlink:href="#path-1"></use>
                </mask>
                <use id="Mask" fill="#B5CACE" xlink:href="#path-1"></use>
            </g>
            <path d="M96.4624309,0 L110.736464,0 C121.064189,0 129.436464,8.37227518 129.436464,18.7 L129.436464,44.1351004 C129.436464,47.7801797 126.481543,50.7351004 122.836464,50.7351004 C121.575988,50.7351004 120.341871,50.3741553 119.280045,49.6949458 L103.599448,39.6646707 L87.9188503,49.6949458 C84.8482325,51.659102 80.7667417,50.7621376 78.8025855,47.6915197 C78.123376,46.6296934 77.7624309,45.3955767 77.7624309,44.1351004 L77.7624309,18.7 C77.7624309,8.37227518 86.1347061,0 96.4624309,0 L96.4624309,0 Z" id="Rectangle-3" fill="#D2E4E8"></path>
            <path d="M96.035809,4.40718563 L111.068848,4.40718563 C116.910499,4.40718563 121.646093,9.14277975 121.646093,14.9844311 L121.646093,16.1594629 C121.646093,22.0926576 118.910076,27.694352 114.230562,31.3419473 L103.55331,39.6646707 L92.874893,31.3419428 C88.194907,27.694375 85.4585635,22.092386 85.4585635,16.1588357 L85.4585635,14.9844311 C85.4585635,9.14277975 90.1941577,4.40718563 96.035809,4.40718563 Z" id="Rectangle" fill="#B5CACE"></path>
            <circle id="Oval-Copy" fill="#D2E4E8" fill-rule="nonzero" cx="102" cy="71" r="4"></circle>
            <circle id="Oval-Copy-2" fill="#D2E4E8" fill-rule="nonzero" cx="102" cy="105" r="4"></circle>
            <circle id="Oval-Copy-3" fill="#D2E4E8" fill-rule="nonzero" cx="102" cy="139" r="4"></circle>
        </g>
    </g>
</svg>
