<?xml version="1.0" encoding="UTF-8"?><svg width="212px" height="212px" viewBox="0 0 212 212" version="1.1" xmlns="http://www.w3.org/2000/svg" xmlns:xlink="http://www.w3.org/1999/xlink"><title>watch</title><desc>Created with Sketch.</desc><g id="watch" stroke="none" stroke-width="1" fill="none" fill-rule="evenodd"><g id="Group" transform="translate(39.000000, 9.000000)"><path d="M40.4641664,0 L92.101051,0 C95.1188268,-1.44253484e-15 97.5652174,2.44639063 97.5652174,5.4641664 L97.5652174,185.535834 C97.5652174,188.553609 95.1188268,191 92.101051,191 L40.4641664,191 C37.4463906,191 35,188.553609 35,185.535834 L35,5.4641664 C35,2.44639063 37.4463906,-3.88653568e-15 40.4641664,0 Z" id="Rectangle-56" fill="#A56644"/><rect id="Rectangle-246" stroke="#FFBC00" stroke-width="12.7497216" fill="#FFFFFF" x="0" y="30" width="132" height="130.086957" rx="29.1422208"/><path d="M51.0074178,66.5414896 C53.1205073,66.5414896 54.8335048,68.254487 54.8335048,70.3675765 L54.8335048,108.628446 C54.8335048,110.741536 53.1205073,112.454533 51.0074178,112.454533 C48.8943284,112.454533 47.1813309,110.741536 47.1813309,108.628446 L47.1813309,70.3675765 C47.1813309,68.254487 48.8943284,66.5414896 51.0074178,66.5414896 Z" id="Rectangle-54-Copy" fill="#FC4848" transform="translate(51.007418, 89.498011) rotate(-47.000000) translate(-51.007418, -89.498011)"/><path d="M65.7685142,65.6521739 L66.3184423,65.6521739 C69.3362181,65.6521739 71.7826087,68.0985645 71.7826087,71.1163403 L71.7826087,101.927138 C71.7826087,104.944914 69.3362181,107.391304 66.3184423,107.391304 L65.7685142,107.391304 C62.7507385,107.391304 60.3043478,104.944914 60.3043478,101.927138 L60.3043478,71.1163403 C60.3043478,68.0985645 62.7507385,65.6521739 65.7685142,65.6521739 Z" id="Rectangle-54" fill="#4B4B4B"/><path d="M72.5221489,93.5609054 L73.072077,93.5609054 C76.0898528,93.5609054 78.5362434,96.0072961 78.5362434,99.0250718 L78.5362434,116.531522 C78.5362434,119.549297 76.0898528,121.995688 73.072077,121.995688 L72.5221489,121.995688 C69.5043731,121.995688 67.0579825,119.549297 67.0579825,116.531522 L67.0579825,99.0250718 C67.0579825,96.0072961 69.5043731,93.5609054 72.5221489,93.5609054 Z" id="Rectangle-54-Copy" fill="#4B4B4B" transform="translate(72.797113, 107.778297) rotate(-48.000000) translate(-72.797113, -107.778297)"/><line x1="103.956522" y1="130.956522" x2="110.652174" y2="137.652174" id="Line-20" stroke="#D4D4D4" stroke-width="9.106944" stroke-linecap="round" stroke-linejoin="round"/><line x1="103.956522" y1="92.9565217" x2="110.652174" y2="99.6521739" id="Line-20" stroke="#D4D4D4" stroke-width="9.106944" stroke-linecap="round" stroke-linejoin="round" transform="translate(106.826087, 95.826087) rotate(-45.000000) translate(-106.826087, -95.826087)"/><line x1="21.9565217" y1="92.9565217" x2="28.6521739" y2="99.6521739" id="Line-20" stroke="#D4D4D4" stroke-width="9.106944" stroke-linecap="round" stroke-linejoin="round" transform="translate(24.826087, 95.826087) rotate(-45.000000) translate(-24.826087, -95.826087)"/><line x1="63.9565217" y1="47.9565217" x2="70.6521739" y2="54.6521739" id="Line-20" stroke="#D4D4D4" stroke-width="9.106944" stroke-linecap="round" stroke-linejoin="round" transform="translate(66.826087, 50.826087) rotate(-315.000000) translate(-66.826087, -50.826087)"/><line x1="64.2608696" y1="132.304348" x2="70.9565217" y2="139" id="Line-20" stroke="#D4D4D4" stroke-width="9.106944" stroke-linecap="round" stroke-linejoin="round" transform="translate(67.130435, 135.173913) rotate(-315.000000) translate(-67.130435, -135.173913)"/><line x1="22.9565217" y1="49.9565217" x2="29.6521739" y2="56.6521739" id="Line-20-Copy" stroke="#D4D4D4" stroke-width="9.106944" stroke-linecap="round" stroke-linejoin="round"/><g id="Group-37" transform="translate(65.956522, 94.086957) scale(-1, 1) translate(-65.956522, -94.086957) translate(20.956522, 49.086957)" stroke="#D4D4D4" stroke-linecap="round" stroke-linejoin="round" stroke-width="9.106944"><line x1="82.9295775" y1="82.918091" x2="89.4366197" y2="89.3447281" id="Line-20"/><line x1="0.929577465" y1="0.91809101" x2="7.43661972" y2="7.34472808" id="Line-20-Copy"/></g></g><rect id="Rectangle" fill="#FFA600" x="177" y="84" width="17" height="40" rx="5"/></g></svg>